<?xml version="1.0" encoding="utf-8"?>
<!-- Generator: Adobe Illustrator 24.0.1, SVG Export Plug-In . SVG Version: 6.00 Build 0)  -->
<svg version="1.1" id="图层_1" xmlns="http://www.w3.org/2000/svg" xmlns:xlink="http://www.w3.org/1999/xlink" x="0px" y="0px"
	 viewBox="0 0 200 200" style="enable-background:new 0 0 200 200;" xml:space="preserve">
<style type="text/css">
	.st0{fill:#3FAB7B;}
</style>
<path class="st0" d="M184.5,93.3c0-2.6,0-5.2,0-7.9c0-5.9,0-12-0.1-18c-0.1-7.4-2.9-14.2-7.7-19.1c-4.9-4.9-11.5-7.6-18.8-7.6
	c-0.8,0-1.6,0-2.4,0.1c-0.7,0.1-1.3,0.1-1.9,0.2c-4.2-10.5-13.6-17.3-24.9-17.3c-1.3,0-2.6,0.1-4,0.3C121.1,14,111.2,7,99.8,7h0
	c-5.4,0-10.9,1.6-15.9,4.7c-11.2,7-22.9,13.6-34.3,20.1c-5.3,3-10.9,6.2-16.3,9.3c-12.1,7-18.5,17.9-18.6,31.6
	c-0.2,17.9-0.2,36.3,0,56.2c0.1,13.9,6.6,24.9,18.7,31.9l13.1,7.6c11.3,6.5,22.7,13.1,34,19.6c6.2,3.6,12.7,5.5,19.1,5.5
	c6.4,0,12.8-1.8,19.1-5.5c5.8-3.3,11.5-6.7,17.3-10c9.6-5.6,19.5-11.3,29.3-16.9c12.8-7.3,19.3-18.5,19.3-33.3c0-7.9,0-15.9,0-23.7
	C184.5,100.5,184.5,96.9,184.5,93.3z M126.3,40.4c0.8-0.2,1.7-0.4,2.5-0.4c4.2,0,8.8,3,9.9,7.6c-4.1,2.4-8.3,4.8-12.5,7.3
	C126.2,50,126.2,45.2,126.3,40.4z M126.2,73.9c4.2-2.5,8.4-5,12.8-7.5c0,3.1,0,6.1,0,9.2c0,11.9,0,24.2,0,36.3
	c0,8.3-3.1,13.7-10.2,17.7c-6.3,3.5-12.6,7.2-18.7,10.8c-3.4,2-6.7,3.9-10.1,5.9c-1.7,1-3.4,1.5-4.9,1.5c-4.2,0-5.8-4.1-5.9-7.9
	c-0.1-2.5,0.2-2.7,1.9-3.6c5.3-2.7,10.5-5.8,15.4-8.7c2.3-1.3,4.6-2.7,6.9-4c8.2-4.7,12.6-12.3,12.5-21.8
	C126.1,93.4,126.1,83.7,126.2,73.9z M110,64.4c-4.8,2.7-9.7,5.5-14.4,8.3c-3.2,1.9-6.6,3.8-9.9,5.7c-8.2,4.7-12.5,12.2-12.5,21.9
	c0,3,0,6,0,9c0,6.1,0,12.4,0.1,18.7c-0.8,0.4-1.6,0.9-2.3,1.3c-0.6,0.4-1.2,0.8-1.8,1c-0.9,0.4-1.9,0.7-2.9,0.7
	c-2.8,0-5.8-1.9-5.9-5.1c-0.5-13.3-0.4-27,0.1-40.6c0.2-6.3,4.8-9.9,7.5-11.5c12-7.1,24.4-14.2,36.3-21.1c1.9-1.1,3.7-2.1,5.6-3.2
	c0,1.4,0,2.7,0,4.1C109.9,57.1,109.9,60.8,110,64.4z M106.6,108.5c-5.6,3.4-11.4,6.7-17.1,10c0-7.2-0.1-14,0.1-20.8
	c0.1-2.2,1.6-3.5,2.9-4.3c5.7-3.4,11.6-6.8,17.3-10.1c0,1.7,0,3.4,0,5c0,4.7-0.1,9.4-0.1,14.1C109.7,106.1,108.1,107.6,106.6,108.5z
	 M86.4,44.2c-7.9,4.6-16.2,9.3-24.3,14C50,65.1,43.9,75.6,43.9,89.6c0,3,0,6,0.1,9c0.1,7.9,0.1,16.1-0.1,24
	c-0.2,6.9,2.1,13.2,6.5,17.7c4.2,4.4,10.1,6.8,16.3,6.8c2.5,0,4.8-0.4,7.1-1.1c2.2,10.4,11.1,18,21.8,18c3.8,0,7.7-1,11.2-3
	c12.1-6.7,22.8-12.9,32.6-18.9c10.4-6.3,16-16.7,16-29.8l0-8.8c0-15.2,0-30.8-0.1-46.2c0.9-0.3,1.8-0.4,2.8-0.4
	c4.7,0,9.9,3.4,10,8.4c0.5,20.5,0.5,42.5-0.1,67.2c-0.2,7.1-5.5,11.3-8.7,13.2c-19.7,11.6-35.8,20.9-50.7,29.3
	c-2.9,1.6-5.9,2.5-8.9,2.5c-3.1,0-6.4-0.9-9.5-2.7c-19.2-10.9-34.9-20-49.3-28.5c-6.5-3.8-9.8-9.4-9.8-16.9
	c-0.2-17.6-0.2-36.1,0-56.6c0.1-7.4,3.2-13,9.3-16.6c17.7-10.5,36.2-21.2,54.9-31.7c1.4-0.8,3-1.2,4.6-1.2c4.7,0,8.8,3.3,9.9,7.8
	C101.9,35.3,94,39.8,86.4,44.2z"/>
</svg>
